<?xml version="1.0" encoding="UTF-8" standalone="no"?>
<!-- Created with Inkscape (http://www.inkscape.org/) -->

<svg
   version="1.1"
   id="svg1"
   width="800"
   height="800"
   viewBox="0 0 800 800"
   sodipodi:docname="vacuum-cleaner-trail.svg"
   inkscape:version="1.3.2 (091e20e, 2023-11-25, custom)"
   xmlns:inkscape="http://www.inkscape.org/namespaces/inkscape"
   xmlns:sodipodi="http://sodipodi.sourceforge.net/DTD/sodipodi-0.dtd"
   xmlns="http://www.w3.org/2000/svg"
   xmlns:svg="http://www.w3.org/2000/svg">
  <defs
     id="defs1">
    <clipPath
       clipPathUnits="userSpaceOnUse"
       id="clipPath12">
      <path
         d="M 0,600 H 600 V 0 H 0 Z"
         transform="translate(-302.65631,-239.0107)"
         id="path12" />
    </clipPath>
    <clipPath
       clipPathUnits="userSpaceOnUse"
       id="clipPath14">
      <path
         d="M 0,600 H 600 V 0 H 0 Z"
         transform="translate(-302.65631,-165.59571)"
         id="path14" />
    </clipPath>
    <clipPath
       clipPathUnits="userSpaceOnUse"
       id="clipPath16">
      <path
         d="M 0,600 H 600 V 0 H 0 Z"
         transform="translate(-302.65631,-161.7969)"
         id="path16" />
    </clipPath>
    <clipPath
       clipPathUnits="userSpaceOnUse"
       id="clipPath18">
      <path
         d="M 0,600 H 600 V 0 H 0 Z"
         transform="translate(-302.96291)"
         id="path18" />
    </clipPath>
  </defs>
  <sodipodi:namedview
     id="namedview1"
     pagecolor="#ffffff"
     bordercolor="#000000"
     borderopacity="0.25"
     inkscape:showpageshadow="2"
     inkscape:pageopacity="0.0"
     inkscape:pagecheckerboard="0"
     inkscape:deskcolor="#d1d1d1"
     inkscape:zoom="0.7625"
     inkscape:cx="399.34426"
     inkscape:cy="400"
     inkscape:window-width="1440"
     inkscape:window-height="830"
     inkscape:window-x="-6"
     inkscape:window-y="-6"
     inkscape:window-maximized="1"
     inkscape:current-layer="g1">
    <inkscape:page
       x="0"
       y="0"
       inkscape:label="1"
       id="page1"
       width="800"
       height="800"
       margin="0 0.48133332 0.73199999 0.25323468"
       bleed="0" />
  </sodipodi:namedview>
  <g
     id="g1"
     inkscape:groupmode="layer"
     inkscape:label="1">
    <g
       id="group-MC0">
      <path
         id="path2"
         d="M 0.19,0 H 599.639 V 599.45 H 0.19 Z"
         style="fill:#8eb737;fill-opacity:1;fill-rule:nonzero;stroke:none"
         transform="matrix(1.3333333,0,0,-1.3333333,0,800)" />
      <path
         id="path3"
         d="M 0,0 22.659,-20.676 H 57.92 l 63.228,-63.228 h 79.673 v -165.968 h 59.551 v 165.968 h 55.932 l 62.014,62.011 h 26.748 V 85.11 l -31.776,32.527 z"
         style="fill:#759c2a;fill-opacity:1;fill-rule:nonzero;stroke:none"
         transform="matrix(1.3333333,0,0,-1.3333333,151.0248,466.8368)" />
      <path
         id="path4"
         d="M 0,0 H 181.78 V -28.575 L 153.207,-57.148 H 28.573 L 0,-28.575 Z"
         style="fill:#2d2b2d;fill-opacity:1;fill-rule:evenodd;stroke:#110f0d;stroke-width:1.149;stroke-linecap:butt;stroke-linejoin:miter;stroke-miterlimit:22.926;stroke-dasharray:none;stroke-opacity:1"
         transform="matrix(1.3333333,0,0,-1.3333333,278.6992,462.96747)" />
      <path
         id="path5"
         d="m 113.269,302.764 h 373.29 v 296.688 h -373.29 z"
         style="fill:#c2e174;fill-opacity:1;fill-rule:nonzero;stroke:none"
         transform="matrix(1.3333333,0,0,-1.3333333,0,800)" />
      <path
         id="path6"
         d="m 113.269,249.874 h 373.29 v 117.638 h -373.29 z"
         style="fill:#2d2b2d;fill-opacity:1;fill-rule:evenodd;stroke:none"
         transform="matrix(1.3333333,0,0,-1.3333333,0,800)" />
      <path
         id="path7"
         d="m 0,0 h 320.403 l -42.03,-43.604 H 42.031 Z"
         style="fill:#626169;fill-opacity:1;fill-rule:evenodd;stroke:none"
         transform="matrix(1.3333333,0,0,-1.3333333,186.2832,358.39973)" />
      <path
         id="path8"
         d="m 181.741,246.998 h 236.345 v 40.598 H 181.741 Z"
         style="fill:#46454b;fill-opacity:1;fill-rule:evenodd;stroke:none"
         transform="matrix(1.3333333,0,0,-1.3333333,0,800)" />
      <path
         id="path9"
         d="m 0,0 v -73.425 l 42.031,-10.777 v 40.598 z"
         style="fill:#7f7e86;fill-opacity:1;fill-rule:evenodd;stroke:none"
         transform="matrix(1.3333333,0,0,-1.3333333,186.2832,358.39973)" />
      <path
         id="path10"
         d="m 0,0 v -73.425 l -42.029,-10.777 v 40.598 z"
         style="fill:#7f7e86;fill-opacity:1;fill-rule:evenodd;stroke:none"
         transform="matrix(1.3333333,0,0,-1.3333333,613.48693,358.39973)" />
      <path
         id="path11"
         d="m 0,0 c 20.22,0 36.612,-16.391 36.612,-36.612 0,-5.637 -1.274,-10.98 -3.551,-15.749 -4.586,-9.605 -6.651,-18.714 -6.651,-29.358 v -12.938 h -52.82 v 12.938 c 0,10.644 -2.062,19.753 -6.65,29.358 -2.275,4.769 -3.55,10.112 -3.55,15.749 C -36.61,-16.391 -20.22,0 0,0"
         style="fill:#46454b;fill-opacity:1;fill-rule:evenodd;stroke:none"
         transform="matrix(1.3333333,0,0,-1.3333333,403.54173,481.31907)"
         clip-path="url(#clipPath12)" />
      <path
         id="path13"
         d="m 0,0 c 14.588,0 26.41,-9.511 26.41,-21.242 0,-11.735 -11.822,-21.245 -26.41,-21.245 -14.585,0 -26.41,9.51 -26.41,21.245 C -26.41,-9.511 -14.585,0 0,0"
         style="fill:#2d2b2d;fill-opacity:1;fill-rule:evenodd;stroke:none"
         transform="matrix(1.3333333,0,0,-1.3333333,403.54173,579.20573)"
         clip-path="url(#clipPath14)" />
      <path
         id="path15"
         d="M 0,0 C 12.344,0 22.346,-7.81 22.346,-17.443 V -161.797 H -22.345 V -17.443 C -22.345,-7.81 -12.341,0 0,0"
         style="fill:#bcb8c2;fill-opacity:1;fill-rule:evenodd;stroke:none"
         transform="matrix(1.3333333,0,0,-1.3333333,403.54173,584.2708)"
         clip-path="url(#clipPath16)" />
      <path
         id="path17"
         d="m 0,0 h -17.324 v 122.692 c 0,5.057 3.897,10.16 8.662,11.34 h 0.002 c 4.764,1.182 8.66,-1.99 8.66,-7.047 z"
         style="fill:#ece8f2;fill-opacity:1;fill-rule:evenodd;stroke:none"
         transform="matrix(1.3333333,0,0,-1.3333333,403.95053,800)"
         clip-path="url(#clipPath18)" />
    </g>
  </g>
</svg>
